<svg xmlns="http://www.w3.org/2000/svg" viewBox="0 0 394.44 394.44"><defs><style>.a{fill:#082ba6;}.b{fill:#ff8700;}.c{fill:#fff;}.d{fill:#082ba5;}</style></defs><rect class="a" width="394.44" height="394.44" rx="81.31"/><path class="b" d="M822.81,425.89h84.93c51.25,0,81.72,30.11,81.72,74.19,0,36.91-24,64.15-52.33,72.39l58.78,104.29H962.22L906.67,575.34H851.84V676.76h-29Zm84.93,123.64c29.39,0,51.61-16.48,51.61-49.45,0-26.52-17.92-48.38-53.4-48.38H851.84v97.83Z" transform="translate(-762.78 -342.78)"/><path class="c" d="M1115.65,435.65a51.22,51.22,0,1,1-51.22-51.22,51.22,51.22,0,0,1,51.22,51.22" transform="translate(-762.78 -342.78)"/><path class="d" d="M1081.21,444.52c3.54,7.1,7.65,14,15.28,14h.62v5.26h-.62c-9.38,0-14.7-7.07-18.27-13.47-3.62,6.4-9,13.47-18.68,13.47h-.61V458.5h.61c8,0,12.28-7.18,15.7-14-3.48-6.83-7.8-13.11-15.7-13.11h-.61v-5.25h.61c9.94,0,15.4,7,18.67,12.65,3.24-5.6,8.61-12.65,18.28-12.65h.62v5.25h-.62C1089.3,431.41,1085.17,436.65,1081.21,444.52ZM1044,415.38a9,9,0,0,0-6.11,2.21V406.16h-5.33V440h5.33V425.59a5.13,5.13,0,0,1,5.3-5.09,4.71,4.71,0,0,1,4.79,4.83V440h5.33V425.12C1053.29,419.39,1049.46,415.38,1044,415.38Z" transform="translate(-762.78 -342.78)"/></svg>